<?xml version="1.0" encoding="utf-8"?><!DOCTYPE svg  PUBLIC '-//W3C//DTD SVG 1.1//EN'  'http://www.w3.org/Graphics/SVG/1.1/DTD/svg11.dtd'><svg xmlns="http://www.w3.org/2000/svg" xmlns:xlink="http://www.w3.org/1999/xlink"><symbol viewBox="0 0 512.00056 512" id="catalog" xmlns="http://www.w3.org/2000/svg"><path d="m377 137h60v30h-60zm0 0"/><path d="m497 61h-347v361h347c8.285156 0 15-6.714844 15-15v-331c0-8.285156-6.714844-15-15-15zm-287 46h92c8.292969 0 15 6.710938 15 15 0 8.292969-6.707031 15-15 15h-92c-8.289062 0-15-6.707031-15-15 0-8.289062 6.710938-15 15-15zm0 60h92c8.292969 0 15 6.710938 15 15 0 8.292969-6.707031 15-15 15h-92c-8.289062 0-15-6.707031-15-15 0-8.289062 6.710938-15 15-15zm242 210h-242c-8.289062 0-15-6.707031-15-15 0-8.289062 6.710938-15 15-15h242c8.292969 0 15 6.710938 15 15 0 8.292969-6.707031 15-15 15zm0-60h-242c-8.289062 0-15-6.707031-15-15 0-8.289062 6.710938-15 15-15h242c8.292969 0 15 6.710938 15 15 0 8.292969-6.707031 15-15 15zm0-60h-242c-8.289062 0-15-6.707031-15-15 0-8.289062 6.710938-15 15-15h242c8.292969 0 15 6.710938 15 15 0 8.292969-6.707031 15-15 15zm15-75c0 8.292969-6.707031 15-15 15h-90c-8.289062 0-15-6.707031-15-15v-60c0-8.289062 6.710938-15 15-15h90c8.292969 0 15 6.710938 15 15zm0 0"/><path d="m60 392c-36.4375 0-65.292969 32.480469-59.179688 70.074219 4.796876 29.5 32.5 49.925781 62.386719 49.925781h373.792969c8.285156 0 15-6.714844 15-15v-45h-318.632812c-6.902344 0-13.148438-4.675781-14.457032-11.453125-5.347656-27.660156-29.691406-48.546875-58.910156-48.546875zm0 0"/><path d="m120 385.246094v-325.246094c0-33.136719-26.863281-60-60-60s-60 26.863281-60 60v325.410156c15.960938-14.394531 36.867188-23.410156 60-23.410156 23.09375 0 44.050781 8.898438 60 23.246094zm0 0"/></symbol><symbol id="close_round_icon" style="enable-background:new 0 0 512 512" viewBox="0 0 512 512" xml:space="preserve" xmlns="http://www.w3.org/2000/svg"><path d="M437.5,386.6L306.9,256l130.6-130.6c14.1-14.1,14.1-36.8,0-50.9c-14.1-14.1-36.8-14.1-50.9,0L256,205.1L125.4,74.5  c-14.1-14.1-36.8-14.1-50.9,0c-14.1,14.1-14.1,36.8,0,50.9L205.1,256L74.5,386.6c-14.1,14.1-14.1,36.8,0,50.9  c14.1,14.1,36.8,14.1,50.9,0L256,306.9l130.6,130.6c14.1,14.1,36.8,14.1,50.9,0C451.5,423.4,451.5,400.6,437.5,386.6z"/></symbol><symbol enable-background="new 0 0 32 32" id="filter_icon" viewBox="0 0 32 32" xml:space="preserve" xmlns="http://www.w3.org/2000/svg"><desc/><g><circle cx="5" cy="8" r="2" stroke-linejoin="round" stroke-miterlimit="10" stroke-width="2"/><line stroke-linejoin="round" stroke-miterlimit="10" stroke-width="2" x1="7" x2="32" y1="8" y2="8"/><circle cx="5" cy="24" r="2" stroke-linejoin="round" stroke-miterlimit="10" stroke-width="2"/><line stroke-linejoin="round" stroke-miterlimit="10" stroke-width="2" x1="7" x2="32" y1="24" y2="24"/><circle cx="27" cy="16" r="2" stroke-linejoin="round" stroke-miterlimit="10" stroke-width="2"/><line stroke-linejoin="round" stroke-miterlimit="10" stroke-width="2" x1="25" x2="0" y1="16" y2="16"/><line stroke-linejoin="round" stroke-miterlimit="10" stroke-width="2" x1="3" x2="0" y1="8" y2="8"/><line stroke-linejoin="round" stroke-miterlimit="10" stroke-width="2" x1="29" x2="32" y1="16" y2="16"/><line stroke-linejoin="round" stroke-miterlimit="10" stroke-width="2" x1="3" x2="0" y1="24" y2="24"/></g></symbol><symbol viewBox="0 0 576 512" id="home_icon" xmlns="http://www.w3.org/2000/svg"><path d="M280.37 148.26L96 300.11V464a16 16 0 0 0 16 16l112.06-.29a16 16 0 0 0 15.92-16V368a16 16 0 0 1 16-16h64a16 16 0 0 1 16 16v95.64a16 16 0 0 0 16 16.05L464 480a16 16 0 0 0 16-16V300L295.67 148.26a12.19 12.19 0 0 0-15.3 0zM571.6 251.47L488 182.56V44.05a12 12 0 0 0-12-12h-56a12 12 0 0 0-12 12v72.61L318.47 43a48 48 0 0 0-61 0L4.34 251.47a12 12 0 0 0-1.6 16.9l25.5 31A12 12 0 0 0 45.15 301l235.22-193.74a12.19 12.19 0 0 1 15.3 0L530.9 301a12 12 0 0 0 16.9-1.6l25.5-31a12 12 0 0 0-1.7-16.93z"/></symbol><symbol viewBox="0 0 20 20" id="nav_sort_icon" xmlns="http://www.w3.org/2000/svg"><g id="elayer1"><path d="M 3 0 L 3 18 L 0 15 L 0 16.5 L 3.5 20 L 7 16.5 L 7 15 L 4 18 L 4 0 L 3 0 z M 7 2 L 7 3 L 20 3 L 20 2 L 7 2 z M 7 6 L 7 7 L 15 7 L 15 6 L 7 6 z M 7 10 L 7 11 L 11 11 L 11 10 L 7 10 z " style="fill:#222222;fill-opacity:1;stroke:none;stroke-width:0px"/></g></symbol></svg>