<?xml version="1.0" encoding="utf-8"?><!DOCTYPE svg  PUBLIC '-//W3C//DTD SVG 1.1//EN'  'http://www.w3.org/Graphics/SVG/1.1/DTD/svg11.dtd'><svg viewBox="0 0 512 512" xmlns="http://www.w3.org/2000/svg" xmlns:xlink="http://www.w3.org/1999/xlink"><style>:root>svg{display:none}:root>svg:target{display:block}</style><svg viewBox="0 0 512.001 512" id="catalog" xmlns="http://www.w3.org/2000/svg"><path d="M377 137h60v30h-60zm0 0"/><path d="M497 61H150v361h347c8.285 0 15-6.715 15-15V76c0-8.285-6.715-15-15-15zm-287 46h92c8.293 0 15 6.71 15 15 0 8.293-6.707 15-15 15h-92c-8.29 0-15-6.707-15-15 0-8.29 6.71-15 15-15zm0 60h92c8.293 0 15 6.71 15 15 0 8.293-6.707 15-15 15h-92c-8.29 0-15-6.707-15-15 0-8.29 6.71-15 15-15zm242 210H210c-8.29 0-15-6.707-15-15 0-8.29 6.71-15 15-15h242c8.293 0 15 6.71 15 15 0 8.293-6.707 15-15 15zm0-60H210c-8.29 0-15-6.707-15-15 0-8.29 6.71-15 15-15h242c8.293 0 15 6.71 15 15 0 8.293-6.707 15-15 15zm0-60H210c-8.29 0-15-6.707-15-15 0-8.29 6.71-15 15-15h242c8.293 0 15 6.71 15 15 0 8.293-6.707 15-15 15zm15-75c0 8.293-6.707 15-15 15h-90c-8.29 0-15-6.707-15-15v-60c0-8.29 6.71-15 15-15h90c8.293 0 15 6.71 15 15zm0 0"/><path d="M60 392C23.562 392-5.293 424.48.82 462.074 5.617 491.574 33.32 512 63.207 512H437c8.285 0 15-6.715 15-15v-45H133.367c-6.902 0-13.148-4.676-14.457-11.453C113.563 412.887 89.22 392 60 392zM120 385.246V60c0-33.137-26.863-60-60-60S0 26.863 0 60v325.41C15.96 371.016 36.867 362 60 362c23.094 0 44.05 8.898 60 23.246zm0 0"/></svg><svg style="enable-background:new 0 0 512 512" xml:space="preserve" viewBox="0 0 512 512" id="close_round_icon" xmlns="http://www.w3.org/2000/svg"><path d="M437.5 386.6 306.9 256l130.6-130.6c14.1-14.1 14.1-36.8 0-50.9-14.1-14.1-36.8-14.1-50.9 0L256 205.1 125.4 74.5c-14.1-14.1-36.8-14.1-50.9 0-14.1 14.1-14.1 36.8 0 50.9L205.1 256 74.5 386.6c-14.1 14.1-14.1 36.8 0 50.9 14.1 14.1 36.8 14.1 50.9 0L256 306.9l130.6 130.6c14.1 14.1 36.8 14.1 50.9 0 14-14.1 14-36.9 0-50.9z"/></svg></svg>