<?xml version="1.0" encoding="utf-8"?><!DOCTYPE svg  PUBLIC '-//W3C//DTD SVG 1.1//EN'  'http://www.w3.org/Graphics/SVG/1.1/DTD/svg11.dtd'><svg viewBox="0 0 576 512" xmlns="http://www.w3.org/2000/svg" xmlns:xlink="http://www.w3.org/1999/xlink"><style>:root>svg{display:none}:root>svg:target{display:block}</style><svg viewBox="0 0 512.001 512" id="catalog" xmlns="http://www.w3.org/2000/svg">
    <path d="M377 137h60v30h-60zm0 0"/>
    <path d="M497 61H150v361h347c8.285 0 15-6.715 15-15V76c0-8.285-6.715-15-15-15zm-287 46h92c8.293 0 15 6.71 15 15 0 8.293-6.707 15-15 15h-92c-8.29 0-15-6.707-15-15 0-8.29 6.71-15 15-15zm0 60h92c8.293 0 15 6.71 15 15 0 8.293-6.707 15-15 15h-92c-8.29 0-15-6.707-15-15 0-8.29 6.71-15 15-15zm242 210H210c-8.29 0-15-6.707-15-15 0-8.29 6.71-15 15-15h242c8.293 0 15 6.71 15 15 0 8.293-6.707 15-15 15zm0-60H210c-8.29 0-15-6.707-15-15 0-8.29 6.71-15 15-15h242c8.293 0 15 6.71 15 15 0 8.293-6.707 15-15 15zm0-60H210c-8.29 0-15-6.707-15-15 0-8.29 6.71-15 15-15h242c8.293 0 15 6.71 15 15 0 8.293-6.707 15-15 15zm15-75c0 8.293-6.707 15-15 15h-90c-8.29 0-15-6.707-15-15v-60c0-8.29 6.71-15 15-15h90c8.293 0 15 6.71 15 15zm0 0"/>
    <path d="M60 392C23.562 392-5.293 424.48.82 462.074 5.617 491.574 33.32 512 63.207 512H437c8.285 0 15-6.715 15-15v-45H133.367c-6.902 0-13.148-4.676-14.457-11.453C113.563 412.887 89.22 392 60 392zM120 385.246V60c0-33.137-26.863-60-60-60S0 26.863 0 60v325.41C15.96 371.016 36.867 362 60 362c23.094 0 44.05 8.898 60 23.246zm0 0"/>
</svg><svg style="enable-background:new 0 0 512 512" xml:space="preserve" viewBox="0 0 512 512" id="close_round_icon" xmlns="http://www.w3.org/2000/svg">
    <path d="M437.5 386.6 306.9 256l130.6-130.6c14.1-14.1 14.1-36.8 0-50.9-14.1-14.1-36.8-14.1-50.9 0L256 205.1 125.4 74.5c-14.1-14.1-36.8-14.1-50.9 0-14.1 14.1-14.1 36.8 0 50.9L205.1 256 74.5 386.6c-14.1 14.1-14.1 36.8 0 50.9 14.1 14.1 36.8 14.1 50.9 0L256 306.9l130.6 130.6c14.1 14.1 36.8 14.1 50.9 0 14-14.1 14-36.9 0-50.9z"/>
</svg><svg viewBox="0 0 32 32" xml:space="preserve" id="filter_icon" xmlns="http://www.w3.org/2000/svg">
    <g fill="none" stroke="#000" stroke-linejoin="round" stroke-miterlimit="10" stroke-width="2">
        <circle cx="5" cy="8" r="2"/>
        <path d="M7 8h25"/>
        <circle cx="5" cy="24" r="2"/>
        <path d="M7 24h25"/>
        <circle cx="27" cy="16" r="2"/>
        <path d="M25 16H0M3 8H0M29 16h3M3 24H0"/>
    </g>
</svg><svg viewBox="0 0 576 512" id="home_icon" xmlns="http://www.w3.org/2000/svg">
    <path d="M280.37 148.26 96 300.11V464a16 16 0 0 0 16 16l112.06-.29a16 16 0 0 0 15.92-16V368a16 16 0 0 1 16-16h64a16 16 0 0 1 16 16v95.64a16 16 0 0 0 16 16.05L464 480a16 16 0 0 0 16-16V300L295.67 148.26a12.19 12.19 0 0 0-15.3 0zM571.6 251.47 488 182.56V44.05a12 12 0 0 0-12-12h-56a12 12 0 0 0-12 12v72.61L318.47 43a48 48 0 0 0-61 0L4.34 251.47a12 12 0 0 0-1.6 16.9l25.5 31A12 12 0 0 0 45.15 301l235.22-193.74a12.19 12.19 0 0 1 15.3 0L530.9 301a12 12 0 0 0 16.9-1.6l25.5-31a12 12 0 0 0-1.7-16.93z"/>
</svg><svg style="enable-background:new 0 0 512 512" xml:space="preserve" viewBox="0 0 512 512" id="nav_icon" xmlns="http://www.w3.org/2000/svg">
    <path d="M417.4 224H94.6C77.7 224 64 238.3 64 256s13.7 32 30.6 32h322.8c16.9 0 30.6-14.3 30.6-32s-13.7-32-30.6-32zM417.4 96H94.6C77.7 96 64 110.3 64 128s13.7 32 30.6 32h322.8c16.9 0 30.6-14.3 30.6-32s-13.7-32-30.6-32zM417.4 352H94.6C77.7 352 64 366.3 64 384s13.7 32 30.6 32h322.8c16.9 0 30.6-14.3 30.6-32s-13.7-32-30.6-32z"/>
</svg><svg viewBox="0 0 20 20" id="nav_sort_icon" xmlns="http://www.w3.org/2000/svg">
    <path d="M3 0v18l-3-3v1.5L3.5 20 7 16.5V15l-3 3V0H3zm4 2v1h13V2H7zm0 4v1h8V6H7zm0 4v1h4v-1H7z" style="fill:#222;fill-opacity:1;stroke:none;stroke-width:0"/>
</svg></svg>